<?xml version="1.0" encoding="UTF-8"?><svg id="a" xmlns="http://www.w3.org/2000/svg" viewBox="0 0 277.02 179.26"><defs><style>.b{fill:#ba0c2f;}</style></defs><path d="M262.42,83.94c1.18,8.09,.76,16.08-1.93,23.89-5.66,16.49-17.14,28.23-31.42,37.51-21.52,13.98-45.51,20.77-70.79,23.65-29.4,3.35-58.23,1.13-86.02-9.53-17.65-6.77-33.38-16.54-45.53-31.36-21.91-26.73-19.59-55.92,6.27-78.97,18.66-16.63,40.91-25.89,65.1-30.69,36.37-7.21,72.21-5.87,106.95,8.28,14.92,6.08,28.76,13.98,39.95,25.79,3.5,3.7,6.41,7.95,9.59,11.95-.23,.43-.46,.86-.69,1.28-14.97,0-29.96-.48-44.89,.17-10.08,.45-17.95-2.02-26.22-8.41-29.09-22.47-67.63-21.11-94.28,2.13-7.45,6.5-13.2,14.19-14.63,24.22-2.36,16.54,4.72,29.52,16.65,40.05,14.75,13.02,32.6,16.71,51.72,15.18,12.71-1.02,25.06-3.64,35.86-10.99,7.28-4.97,13.04-11.27,16.93-20.06H113.24v-24.09h149.18Z"/><path class="b" d="M252.77,39.67c32.33,29.36,31.81,71.22-.43,100.68-18.92,17.28-41.51,27.57-66.26,32.8-15.54,3.29-28.09,5.86-44.09,5.86l-3.41-.34c-35.09-.19-68.35-7.29-98.37-26.31-10.35-6.56-19.44-14.57-26.68-24.51-18.68-25.62-17.6-55.94,2.94-80.22C32.81,28.31,54.1,16.59,77.97,9.58,127.18-4.86,175.69-3.17,222.4,19.04c10.95,5.2,21.39,12.47,30.37,20.63Zm3.85,88.63c19.19-22.64,20.1-50.29,2.51-74.1-10.12-13.69-23.48-23.51-38.73-30.67C175.84,2.61,129.71,.5,82.7,13.47c-23.64,6.53-44.88,17.6-61.35,36.34C.07,74.01,.11,105.06,21.26,129.38c8.74,10.05,19.19,17.9,30.9,24.11,27.06,14.35,56.13,20.12,91.67,20.11,13.15,.28,31.08-2.15,48.6-7.17,24.72-7.08,47.21-18.09,64.19-38.13Z"/></svg>