<?xml version="1.0" encoding="UTF-8"?><svg id="a" xmlns="http://www.w3.org/2000/svg" viewBox="0 0 303.85 288.5"><defs><style>.b{fill:#fff;}.c{fill:#c00;}</style></defs><path class="c" d="M303.6,232.26v55.99h-104.84v-55.94h15.14v-10.37h-57.18v10.67h15.48v55.64H67.36v-55.81h16.33v-44.58c-1.34-.24-2.28-.66-3.1-.49-23.63,4.73-41.05-5.94-56.12-22.49-.48-.52-.99-1.02-1.57-1.38-4.29-2.61-5.17-6.49-5.13-11.3,.21-28.87,.17-57.74,.17-86.6,0-2.96-.27-5.93-.43-9.42H.25V.25H105.09V56.42h-14.78v41.16h58.2V56.03h-15.46V.25h104.84V55.85h-16.2v41.98h81.23v55.8h-15.84v78.63h16.53Zm-14.62-85.42c5.56,.6,7.97-1.2,7.66-7.28-.49-9.28-.43-18.64-.06-27.93,.21-5.4-1.82-6.67-6.88-6.61-22.59,.24-45.19,.13-67.79,.11-2.45,0-4.89-.21-7.27-.32V48.85h16.01V8.57c-.84-.41-1.26-.77-1.66-.77-28.18-.1-56.36-.25-84.53-.06-1.44,.01-4,2.95-4.1,4.64-.46,7.66-.21,15.36-.22,23.05q0,13.24,12.85,13.77c1.08,.04,2.15,.39,3.19,.6v54.89H83.34V48.97h14.69V7.63c-29.32,0-58.15-.03-86.97,.13-1.12,0-3.2,1.75-3.22,2.7-.21,12.71-.14,25.43-.14,38.85H25.18v7.55c-.01,24.45,1.16,48.99-.45,73.36-1.2,18.37,2.74,32.55,19.28,41.93,1.38,.78,2.29,2.52,3.7,3.13,4.28,1.83,8.63,4.4,13.1,4.73,9.86,.71,19.8,.22,29.81,.22v59.63h-15.95v41.35c9.79,0,19.06,.01,28.32,0,18.64,0,37.27,.1,55.91-.18,2.07-.03,5.86-2.15,5.91-3.41,.45-12.26,.27-24.54,.27-37.31-5.76-.27-10.77-.5-15.92-.73v-24.84h71.57v24.73c-5.26,.32-10.01,.6-14.6,.88v40.84c29.14,0,57.74,.06,86.34-.15,1.33,0,3.77-2.24,3.8-3.48,.29-12.25,.18-24.52,.18-37.65-3.63,0-6.4-.29-9.1,.06-6.65,.88-8.14-2.18-8.07-8.35,.31-25.61,.14-51.24,.2-76.87,0-2.46,.29-4.92,.48-7.95,3.5,0,6.28-.24,9.02,.06Z"/><path class="b" d="M296.64,139.55c.31,6.08-2.1,7.89-7.66,7.28-2.74-.29-5.52-.06-9.02-.06-.18,3.03-.48,5.49-.48,7.95-.06,25.63,.11,51.25-.2,76.87-.07,6.17,1.41,9.23,8.07,8.35,2.7-.35,5.47-.06,9.1-.06,0,13.13,.11,25.4-.18,37.65-.03,1.24-2.47,3.48-3.8,3.48-28.6,.21-57.21,.15-86.34,.15v-40.84c4.59-.28,9.34-.56,14.6-.88v-24.73h-71.57v24.84c5.16,.22,10.16,.46,15.92,.73,0,12.78,.18,25.05-.27,37.31-.06,1.26-3.84,3.38-5.91,3.41-18.64,.28-37.27,.18-55.91,.18-9.27,.01-18.54,0-28.32,0v-41.35h15.95v-59.63c-10.01,0-19.95,.49-29.81-.22-4.47-.32-8.82-2.89-13.1-4.73-1.41-.62-2.32-2.35-3.7-3.13-16.54-9.38-20.48-23.56-19.28-41.93,1.61-24.37,.43-48.9,.45-73.36v-7.55H7.7c0-13.42-.07-26.14,.14-38.85,.01-.95,2.1-2.7,3.22-2.7,28.83-.15,57.66-.13,86.97-.13V48.97h-14.69v55.73h72.84V49.81c-1.03-.21-2.11-.56-3.19-.6q-12.85-.55-12.85-13.77c.01-7.69-.24-15.39,.22-23.05,.1-1.69,2.66-4.63,4.1-4.64,28.17-.2,56.34-.04,84.53,.06,.41,0,.82,.36,1.66,.77V48.85h-16.01v55.95c2.38,.11,4.82,.32,7.27,.32,22.61,.01,45.2,.13,67.79-.11,5.06-.06,7.09,1.22,6.88,6.61-.38,9.3-.43,18.65,.06,27.93Zm-9.13-1.38v-24.03h-72.88v24.62h14.62v41.01h-75.79q-13.11,0-13.11-13.46v-28.14h16.04v-24.1H83.17v24.59h16.01v109.8h-15.99v23.89h72.98v-24.28h-15.81c0-11.77,.28-22.9-.11-34.01-.22-6.14,1.29-8.51,8.04-8.39,24.69,.42,49.38,.15,74.08,.18,2.25,0,4.5,.24,6.85,.36v41.62c-5.23,.29-9.97,.57-14.62,.84v23.67h72.91v-24.23h-15.98v-109.93h15.99ZM222.12,40.53V16.48h-72.95v24.49h15.36c.18,2.82,.46,5.12,.46,7.4,0,28.65-.01,57.29-.06,85.92-.03,11.91-.07,11.9-11.63,12.19-1.36,.03-2.71,.22-4.29,.35v24.94c3.59,0,6.88-.43,10.01,.07,17.27,2.8,31.48-2.32,42.24-16.18,2.06-2.64,4.17-6.19,4.19-9.34,.31-32.38,.18-64.74,.18-97.11v-8.7h16.48Zm-1.51,129.84v-19.82c-7.86,6.98-14.58,12.96-22.3,19.82h22.3Zm-130.02,1.38v-25.58h-15.81V40.93c5.3-.22,10.08-.43,14.88-.66V16.48H16.57v24.51h17.06v8.91c0,27.49,.96,55.01-.38,82.44-.73,14.83,3.08,25.53,15.7,33.13,3.15,1.89,5.93,5.77,9.06,5.98,10.81,.75,21.71,.29,32.59,.29Z"/><path class="c" d="M287.51,114.14v24.03h-15.99v109.93h15.98v24.23h-72.91v-23.67c4.66-.27,9.39-.55,14.62-.84v-41.62c-2.35-.13-4.6-.36-6.85-.36-24.7-.03-49.39,.24-74.08-.18-6.75-.13-8.26,2.25-8.04,8.39,.39,11.11,.11,22.24,.11,34.01h15.81v24.28H83.18v-23.89h15.99v-109.8h-16.01v-24.59h73.22v24.1h-16.04v28.14q0,13.46,13.11,13.46h75.79v-41.01h-14.62v-24.62h72.88Z"/><path class="c" d="M222.12,16.48v24.05h-16.48v8.7c0,32.37,.13,64.73-.18,97.11-.03,3.15-2.14,6.7-4.19,9.34-10.75,13.85-24.97,18.97-42.24,16.18-3.13-.5-6.42-.07-10.01-.07v-24.94c1.58-.13,2.94-.32,4.29-.35,11.56-.29,11.6-.28,11.63-12.19,.04-28.63,.06-57.28,.06-85.92,0-2.28-.28-4.57-.46-7.4h-15.36V16.48h72.95Z"/><path class="c" d="M220.61,150.54v19.82h-22.3c7.72-6.86,14.44-12.85,22.3-19.82Z"/><path class="c" d="M90.59,146.17v25.58c-10.88,0-21.78,.46-32.59-.29-3.13-.21-5.91-4.1-9.06-5.98-12.62-7.61-16.43-18.3-15.7-33.13,1.34-27.43,.38-54.96,.38-82.44v-8.91H16.57V16.48H89.66v23.79c-4.8,.22-9.58,.43-14.88,.66v105.23h15.81Z"/></svg>