<?xml version="1.0" encoding="UTF-8"?><svg id="a" xmlns="http://www.w3.org/2000/svg" viewBox="0 0 261.14 278.89"><defs><style>.b{fill:#0033a0;}.c{fill:#fff;}.d{fill:gold;}</style></defs><path d="M255.44,68.81c3.32,1.04,4.78,2.47,4.64,6.25-.53,13.93,.06,27.92-1.29,41.75l-1.8-.26c0-14.16,.17-27.21-.18-40.25-.05-1.81-2.21-4.51-4-5.17-9.22-3.4-18.64-6.28-27.99-9.31-8.45-2.74-16.91-5.45-24.81-7.99-.68-5.52-1.05-10.22-1.88-14.84-3.24-18.37-16.82-32.98-33.28-34.69-31.1-3.23-61.53,.64-91.22,10.28-1.61,.53-3.82,2.6-3.87,4.01-.32,10.46-.18,20.94-.18,31.77,4.13-.8,7.77-1.49,11.33-2.17,1.88,5.79-.39,7.4-5.49,9.27-12.76,4.69-25.88,9.35-37.3,16.5-4.32,2.71-8.05,5.77-11.21,9.16l-2.3-1.81c8.06-8.41,17.34-15.1,28.41-19.97,1.7-.76,3.27-3.69,3.42-5.72,.46-6.19,.19-12.41,.22-18.64,.05-15.34,5.16-22.42,19.95-26.76C104.18,2.1,132.26-1.61,161.02,1.16c20.46,1.98,35.46,15.56,39.78,36.04,.39,1.89,1.26,3.86,.99,5.66-1.21,8.15,3.74,10.2,10.28,12.12,14.57,4.24,28.9,9.3,43.38,13.84Z"/><path d="M257,116.55l1.8,.26c-.5,5.13-5.07,9.95-8.17,14.66-.45,.69-3.13,.27-4.64-.14-5.5-1.53-10.94-3.27-17.07-5.13,6.42,6.03,12.68,11.16,18.04,17.09,5.25,5.79,8.99,12.69,11.27,20.09l-2.53,.72c-2.02-6.44-5.43-12.63-10.51-18.48-12.22-14.06-26.97-24.27-45.35-28.64v-27.1c5.63,.32,10.01,1.39,9.22,8.44-.15,1.35,1.45,3.83,2.75,4.26,14.55,4.69,29.19,9.09,45.18,13.98Z"/><path d="M258.23,163.37c6.07,19.74,1.67,42.98-12.8,57.93-11.29,11.66-25.57,14.11-40.81,12.6-4.05-.4-5.72,.72-7.4,3.81l-2.7-.78c1.05-2.11,1.9-4.42,2.52-6.94,1.05-4.31,1.27-8.84,1.83-12.98,8.87,.63,17.45,2.25,25.86,1.62,12.9-.96,25.77-4.13,30.06-18.66,3.67-12.41,4.45-24.53,.9-35.87l2.53-.72Z"/><path class="d" d="M256.82,76.29c.35,13.04,.18,26.09,.18,40.25-15.99-4.89-30.63-9.29-45.18-13.98-1.3-.42-2.91-2.91-2.75-4.26,.78-7.05-3.59-8.12-9.22-8.44v27.1c18.38,4.37,33.13,14.58,45.35,28.64,5.08,5.85,8.49,12.04,10.51,18.48,3.55,11.34,2.77,23.46-.9,35.87-4.28,14.53-17.16,17.7-30.06,18.66-8.41,.63-16.99-.99-25.86-1.62-.55,4.14-.77,8.67-1.83,12.98-.62,2.52-1.47,4.84-2.52,6.94-4.58,9.11-13.17,14.17-24.38,14.2-12.63,.01-25.39-1.44-37.85-.04-18.65,2.08-37.07,6.08-55.57,9.32-2.07,.36-4.08,1.03-7.06,1.79,0-11.43-.27-22.3,.31-33.12,.08-1.63,3.96-3.69,6.43-4.45,3.65-1.11,5.92-2.37,4.03-7.51-20.96,5.8-41.99,11.63-63.62,17.61,0-14.25-.06-27.73,.1-41.19,.03-1.32,1.25-3.5,2.33-3.81,6.15-1.75,12.3-3.46,18.48-5.16,10.3-2.83,20.68-5.63,31.21-8.49,.31,3.2,.55,5.68,.8,8.17q11.47-.69,11.47-11.59v-17.71c-7.81,1.4-15.19,3.4-22.67,3.9-7.18,.48-14.65,.32-21.66-1.16-15.65-3.32-22.39-12.6-23.65-31.41-1.14-16.96,3.09-31.84,13.7-43.17,3.16-3.38,6.89-6.44,11.21-9.16,11.42-7.15,24.54-11.81,37.3-16.5,5.11-1.88,7.37-3.49,5.49-9.27-3.56,.68-7.2,1.38-11.33,2.17,0-10.83-.14-21.31,.18-31.77,.05-1.41,2.26-3.49,3.87-4.01C103.34,4.94,133.76,1.07,164.86,4.3c16.46,1.71,30.04,16.32,33.28,34.69,.82,4.62,1.2,9.32,1.88,14.84,7.9,2.53,16.36,5.25,24.81,7.99,9.35,3.04,18.76,5.92,27.99,9.31,1.79,.66,3.95,3.36,4,5.17Zm-5.76,116.28c5.68-30.92-17.35-63.03-51.15-68.96,0,7.28-.18,13.88,.15,20.45,.06,1.36,1.74,3.25,3.13,3.85,10.79,4.57,10.83,4.49,10.71,16.35-.05,4.94-.13,9.86-.15,14.79-.03,3.72-.01,7.42-.01,11.81-32.54-10.4-63.88-15.93-97.01-11.14v22.12c3.37,0,6.39,.21,9.36-.03,24.38-1.89,48.24,.19,71.69,7.69,7.63,2.44,16.02,4.21,23.92,3.73,21.08-1.3,26.92-7.4,29.36-20.65Zm.08-111.3c.14-3.96-1.27-5.5-5-6.64-14.08-4.3-27.99-9.21-42.08-13.52-28.15-8.59-56.83-11.7-86.36-7.68v23.87c2.62-.12,4.76-.1,6.87-.32,28.76-3.01,56.77,.48,84.27,9.13,4.06,1.29,6.01,3.19,6.04,7.56,.01,1.66,1.45,4.32,2.83,4.78,10.69,3.6,21.52,6.76,33.35,10.38,0-10.03-.21-18.82,.09-27.57Zm-42.62,81.76c.23-8.44,.13-8.48-8.99-9.29,0,6.61,.33,13.22-.1,19.77-.4,5.7,1.21,9,8.19,8.95,.32-6.73,.73-13.08,.9-19.43Zm-41.39-116.08v-6.75c-16.86-2.87-33.45-3.51-49.95,.12v6.64h49.95Zm-.14,62.63v-26.6c-17.12-1.84-33.8-2.37-50.6,1.17v27.28c8.73-.64,17.04-1.48,25.37-1.79,8.3-.3,16.63-.06,25.22-.06Zm-.01,63.6v-27.52h-50.67v27.52h50.67Zm-.39,41.41v-6.44h-50.44v6.44h50.44Zm-.15-74.43v-23.73c-35.1-4.37-68.43,3.73-101.95,12.75,0-9.53,.01-18.29-.01-27.05-.03-12.28-.06-12.37,11.95-15.81,3.32-.95,5.03-2.2,4.78-6.06-.37-5.95-.09-11.95-.09-18.94-17.04,4.1-32.09,10.3-44.7,21.56-15.34,13.7-19.32,31.2-16.58,50.76,1.36,9.72,7.14,15.9,16.63,18.19,13,3.14,25.94,2.13,38.65-1.66,25.36-7.58,51.03-12.78,77.69-11.06,4.42,.28,8.86,.68,13.63,1.05Zm-85.32-23.69c1.22-8.06,.46-16.42,.46-24.67-.62-.49-1.23-.96-1.85-1.45-3.01,2.19-8.23,4.04-8.63,6.62-1.14,7.69-.41,15.66-.41,25.75,4.13-2.34,10.07-3.87,10.43-6.25Zm-.76,91.81c.23-6.56,.12-13.13,.12-20.41-5.74,1.53-10.96,2.91-16.56,4.4-.36-3.14-.62-5.41-.99-8.71-14.02,3.85-27.33,7.5-40.59,11.15v32.72c18.75-5.41,37.17-10.69,55.55-16.14,1.07-.31,2.44-1.94,2.48-3.01Z"/><path class="b" d="M199.91,123.61c33.8,5.93,56.83,38.04,51.15,68.96-2.44,13.26-8.28,19.36-29.36,20.65-7.9,.48-16.29-1.29-23.92-3.73-23.45-7.5-47.3-9.58-71.69-7.69-2.97,.23-5.99,.03-9.36,.03v-22.12c33.13-4.8,64.47,.73,97.01,11.14,0-4.39-.01-8.09,.01-11.81,.03-4.93,.1-9.85,.15-14.79,.12-11.86,.08-11.78-10.71-16.35-1.39-.59-3.06-2.48-3.13-3.85-.33-6.57-.15-13.17-.15-20.45Z"/><path class="b" d="M246.13,74.63c3.73,1.13,5.14,2.68,5,6.64-.3,8.76-.09,17.54-.09,27.57-11.83-3.61-22.66-6.78-33.35-10.38-1.38-.46-2.82-3.13-2.83-4.78-.04-4.37-1.98-6.28-6.04-7.56-27.5-8.66-55.51-12.14-84.27-9.13-2.11,.22-4.24,.21-6.87,.32v-23.87c29.53-4.03,58.21-.91,86.36,7.68,14.1,4.31,28,9.22,42.08,13.52Z"/><path d="M199.52,153.74c9.12,.81,9.22,.85,8.99,9.29-.17,6.35-.58,12.71-.9,19.43-6.98,.05-8.59-3.25-8.19-8.95,.44-6.55,.1-13.16,.1-19.77Z"/><path d="M197.23,237.71c-.1,.18-.19,.36-.3,.55-2.61,5.12-5.72,10.04-9.17,14.66-7.29,9.77-17.08,14.84-29.46,13.57-32.72-3.36-64.46,1.31-95.62,11.14-1.21,.39-2.48,.57-4.54,1v-42.2c-18.16,4.99-35.34,9.71-53.1,14.58,0-16.87-.91-33.37,.46-49.69,.53-6.19,4.75-12.89,13.05-14.91,6.2-1.5,12.37-3.15,18.35-4.8l.81,2.95c-6.19,1.7-12.33,3.41-18.48,5.16-1.08,.31-2.3,2.48-2.33,3.81-.17,13.47-.1,26.94-.1,41.19,21.63-5.98,42.66-11.81,63.62-17.61,1.89,5.14-.37,6.4-4.03,7.51-2.47,.76-6.35,2.82-6.43,4.45-.58,10.82-.31,21.68-.31,33.12,2.98-.76,4.99-1.43,7.06-1.79,18.51-3.24,36.92-7.24,55.57-9.32,12.46-1.4,25.22,.05,37.85,.04,11.21-.03,19.81-5.09,24.38-14.2l2.7,.78Z"/><path d="M167.13,40.19v6.75h-49.95v-6.64c16.5-3.63,33.09-2.98,49.95-.12Z"/><path d="M166.98,82.98v26.6c-8.59,0-16.93-.23-25.22,.06-8.33,.31-16.64,1.14-25.37,1.79v-27.28c16.8-3.54,33.48-3.01,50.6-1.17Zm-10.48,24.06v-10.69h-36.72v10.69h36.72Z"/><path d="M166.97,145.65v27.52h-50.67v-27.52h50.67Zm-10.4,24.02v-10.39h-36.72v10.39h36.72Z"/><path d="M166.59,208.14v6.44h-50.44v-6.44h50.44Z"/><path class="b" d="M166.43,116.43v23.73c-4.77-.37-9.21-.77-13.63-1.05-26.66-1.72-52.33,3.49-77.69,11.06-12.71,3.79-25.64,4.8-38.65,1.66-9.49-2.29-15.27-8.46-16.63-18.19-2.74-19.56,1.23-37.07,16.58-50.76,12.62-11.25,27.66-17.45,44.7-21.56,0,7-.28,12.99,.09,18.94,.24,3.86-1.47,5.11-4.78,6.06-12.01,3.43-11.97,3.52-11.95,15.81,.03,8.76,.01,17.52,.01,27.05,33.52-9.02,66.85-17.12,101.95-12.75Z"/><path class="c" d="M156.57,159.28v10.39h-36.72v-10.39h36.72Z"/><path class="c" d="M156.5,96.35v10.69h-36.72v-10.69h36.72Z"/><path d="M81.57,91.8c0,8.24,.76,16.6-.46,24.67-.36,2.38-6.3,3.91-10.43,6.25,0-10.08-.73-18.06,.41-25.75,.4-2.59,5.62-4.44,8.63-6.62,.62,.49,1.23,.96,1.85,1.45Z"/><path d="M81.2,154.95v17.71q0,10.89-11.47,11.59c-.24-2.48-.49-4.96-.8-8.17-10.53,2.86-20.91,5.66-31.21,8.49l-.81-2.95c8.58-2.38,16.76-4.77,24.08-6.8-10.46-.58-23.39-.28-35.99-2.26-13.8-2.19-21.12-12.18-23.57-25.58-3.6-19.59,1.2-36.68,12.89-53.13,3.23-4.53,6.64-8.72,10.3-12.55l2.3,1.81c-10.61,11.33-14.84,26.21-13.7,43.17,1.26,18.8,8,28.09,23.65,31.41,7.01,1.48,14.48,1.63,21.66,1.16,7.49-.5,14.87-2.5,22.67-3.9Z"/><path class="b" d="M80.47,187.87c0,7.28,.12,13.85-.12,20.41-.04,1.07-1.41,2.7-2.48,3.01-18.38,5.45-36.8,10.73-55.55,16.14v-32.72c13.26-3.65,26.57-7.31,40.59-11.15,.37,3.29,.63,5.57,.99,8.71,5.61-1.49,10.83-2.87,16.56-4.4Z"/></svg>