<?xml version="1.0" encoding="UTF-8"?><svg xmlns="http://www.w3.org/2000/svg" viewBox="0 0 331.75 376.27"><defs><style>.d{fill:#030;}.e{fill:#fff;}.f{fill:#00a3da;}.g{fill:#3eaa38;}</style></defs><g id="a"/><g id="b"><path class="f" d="M324.27,83.61c1.24,.01,1.43,.41,.98,1.57-2.94,7.54-5.88,15.09-8.82,22.63-8.39,21.48-16.73,42.99-25.08,64.48-.74,3.01-1.92,4.13-5.03,3.88-13.52-.1-27.05-.05-40.58-.05-1.91,0-2.03-.19-2.3-2.13-.71-5.19-1.57-10.35-2.3-15.54q-.3-3.32-3.66-3.32h-34.45c-2.65,0-2.58,.03-3.53,2.49-14.55,37.27-29,74.56-43.56,111.83-4.72,18.04-29.83,51.4-.77,59.67,1.7,1.23,7.13,.51,5.63,3.64-5.45,13.93-10.96,27.85-16.23,41.86-.41,1.1-1.09,1.37-2.19,1.37-46.67-.05-93.34,0-140.01-.02-2.4,0-2.48-.08-1.59-2.31,4.24-10.67,8.48-21.35,12.62-32.06,1.66-4.3,3.32-8.6,4.93-12.92,2.31-3.4,13.39,1.45,21.27-6.84,16.49-15.67,20.05-41.54,29.62-61.7,11.88-30.39,23.53-60.87,35.47-91.24,8.06-20.23,6.94-12.21-15.2-13.76-4.56,.75-10.69-1.7-14.33,1.41-4.77,6.21-9.53,12.43-14.36,18.6-18.05,2.55-37.76,.33-56.34,.85,8.75-22.96,17.6-45.66,26.64-68.47,2.64-4.15,7.1-25.11,11.49-23.93,27.19,0,54.37-.01,81.56,.03,7.64,1.79,14.93,6.17,21.79,9.97-32.69,1.6-68.53-3.13-99.7,1.65-8.77,23.77-18.86,47.17-27.26,71,11.7,.23,23.41,0,35.11,.1,6.76-4.62,10.88-13.79,16.61-20.01,16.96-2.77,35.87-.07,53.48-.98-14.29,37.93-29.43,75.51-43.88,113.38-10.52,22.43-14.62,49.05-31.32,67.9-28.72,24.36-16.91-9.3-34.55,39.23,40.42,.5,80.87,.01,121.31,.2,3.76-.42,7.26-17.04,9.68-20.99,.23-2.13,4.73-7.78,1.54-8.45-15.61-5.99-18.76-25.2-12.34-39.16,19.35-50.44,39.27-100.64,58.67-151.05,16.96-3.02,36.88-.05,54.79-1.08,.85,0,1.25,.29,1.37,1.18,4.29,28.17-3.1,17.99,32.26,19.84,3.67-.88,5.98-14.13,8.47-18.18,4.31-10.83,10.87-28.66,21.24-54.54h-5.27c7.04-14.2,1.67-9.27,18.12-10.04Z"/><path class="d" d="M330.28,80.66c1.23,.01,1.42,.4,.97,1.55-2.92,7.43-5.83,14.87-8.75,22.3-8.32,21.17-16.6,42.36-24.88,63.54-.73,2.97-1.9,4.07-4.99,3.82-13.41-.1-26.83-.05-40.25-.05-1.89,0-2.01-.19-2.28-2.1-.7-5.11-1.56-10.2-2.28-15.31q-.3-3.27-3.63-3.27h-34.17c-2.63,0-2.56,.03-3.5,2.45-14.43,36.72-28.77,73.47-43.21,110.19-4.68,17.78-29.59,50.65-.76,58.8,1.69,1.21,7.07,.5,5.58,3.59-5.41,13.73-10.87,27.44-16.1,41.25-.41,1.08-1.08,1.35-2.17,1.35-46.29-.05-92.59,0-138.88-.02-2.38,0-2.46-.08-1.58-2.28,4.21-10.51,8.41-21.04,12.52-31.59,1.65-4.24,3.29-8.47,4.89-12.73,2.29-3.35,13.28,1.43,21.1-6.74,16.36-15.44,19.89-40.93,29.38-60.8,11.78-29.95,23.34-59.98,35.18-89.91,8-19.93,6.88-12.03-15.08-13.56-4.52,.74-10.6-1.68-14.21,1.39-4.73,6.12-9.45,12.25-14.24,18.33-17.9,2.51-37.46,.33-55.89,.84,8.68-22.62,17.46-44.99,26.43-67.47,2.62-4.09,7.04-24.74,11.4-23.58,26.97,0,53.93-.01,80.9,.03,7.58,1.76,14.81,6.08,21.61,9.82-32.43,1.58-67.98-3.08-98.9,1.63-8.7,23.42-18.71,46.48-27.04,69.96,11.61,.23,23.22,0,34.83,.1,6.71-4.55,10.79-13.59,16.48-19.72,16.82-2.73,35.58-.07,53.05-.97-14.18,37.38-29.19,74.41-43.53,111.72-10.44,22.1-14.5,48.33-31.07,66.91-28.49,24-16.77-9.16-34.27,38.66,40.09,.49,80.22,0,120.33,.2,3.73-.41,7.2-16.79,9.6-20.68,.23-2.1,4.69-7.67,1.53-8.33-15.48-5.9-18.61-24.83-12.24-38.59,19.19-49.7,38.95-99.17,58.2-148.84,16.82-2.98,36.58-.05,54.35-1.06,.84,0,1.24,.29,1.36,1.16,4.26,27.76-3.08,17.73,32,19.55,3.64-.87,5.93-13.92,8.4-17.91,7.2-17.96,13.81-35.74,21.07-53.74h-5.23c6.98-13.99,1.66-9.13,17.97-9.89Z"/></g><g id="c"><path class="f" d="M47.76,71.42c1.5-1.61,3.05-3.18,4.51-4.83,6.91-7.8,14.6-14.68,22.93-20.79,7.35-5.39,15.04-10.23,23.27-14.04,5.43-2.51,11.02-4.69,16.62-6.79,3.55-1.33,7.21-2.38,10.88-3.34,3.12-.82,6.3-1.4,9.47-1.98,3.4-.62,6.82-1.11,10.24-1.66,.16-.03,.32-.04,.48-.04,6.32-.12,12.63-.29,18.95-.35,2.51-.02,5.01,.17,7.52,.31,.58,.03,1.15,.24,1.72,.37l.08-.35c-.59-.2-1.17-.52-1.77-.58-9.87-1.06-19.77-1.79-29.69-1.21-4.92,.29-9.81,1.01-14.71,1.63-2.89,.37-5.78,.78-8.61,1.43-3.74,.86-7.47,1.8-11.11,3.02-4.51,1.51-8.98,3.21-13.36,5.08-9.29,3.98-17.93,9.19-26.05,15.34-8.1,6.15-15.42,13.15-22.04,20.95-7.24,8.54-13.41,17.84-18.71,27.78-3.54,6.65-6.51,13.55-9.03,20.65-2.03,5.71-3.61,11.57-4.86,17.54-1.94,9.27-2.22,18.57-1.15,27.95,.17,1.45,.5,2.87,.75,4.31,.06,.33,.18,.72,.07,.99-.88,2.11-1.25,4.44-2.74,6.3-.57,.71-.78,1.73-1.12,2.61-.52,1.36-1,2.73-1.52,4.09-.39,1.01-.02,1.4,.97,1.39,2.19-.02,4.38,.04,6.56-.02,.99-.03,1.47,.41,1.8,1.29,3.99,10.6,9.75,20.06,16.98,28.63,6.68,7.93,14.29,14.74,22.78,20.48,4.15,2.8,8.54,5.21,12.83,7.79,.32,.19,.69,.27,1.04,.41l.2-.34c-.51-.43-.97-.93-1.52-1.29-6.84-4.43-13.03-9.71-18.8-15.53-6-6.06-11.37-12.68-15.84-20.01-2.54-4.17-4.69-8.6-6.89-12.99-1.17-2.32-2.06-4.79-3.08-7.19-.27-.63-.31-1.16,.57-1.23,2.72-.19,5.44-.55,8.16-.53,4.42,.04,8.85,.31,13.27,.56,.42,.02,.92,.45,1.21,.83,2.47,3.3,4.78,6.72,7.37,9.92,3.36,4.15,7.34,7.66,11.64,10.72,3.55,2.52,7.23,4.84,10.86,7.23,.35,.23,.77,.33,1.23,.39-10.39-7.96-19.11-17.37-24.94-29.37l.2-.5c2.14,.21,4.28,.41,6.42,.62,.36,.04,.72,.11,1.08,.11,4.05,0,8.11-.02,12.16,.02,.9,0,1.51-.31,2.06-1.04,4.26-5.73,8.58-11.42,12.8-17.18,1.02-1.39,2.1-2.02,3.85-1.95,3.8,.15,7.62,.04,11.43,.05,1.36,0,1.46,.13,.98,1.41-1.75,4.67-3.54,9.32-5.3,13.99-2.42,6.42-4.81,12.86-7.25,19.27-2.41,6.34-4.87,12.65-7.27,18.99-2.93,7.74-5.81,15.5-8.74,23.24-2.19,5.79-4.45,11.56-6.65,17.35-1.63,4.32-3.21,8.66-4.82,12.98-.18,.49-.43,.97-.74,1.66-21.1-16.23-37.95-36.1-50.88-59.58l-.31,.2c.23,.68,.42,1.37,.68,2.04,3.27,8.48,7.29,16.54,12.17,24.16,4.7,7.33,9.98,14.15,15.93,20.43,6.15,6.48,12.79,12.38,20.08,17.47,.36,.25,.71,.99,.61,1.36-.35,1.28-.91,2.5-1.38,3.74-.31,.83-.83,.98-1.5,.47-3.42-2.6-6.87-5.15-10.24-7.82-5.39-4.29-10.24-9.2-14.83-14.37-4.81-5.41-9.34-11.08-13.13-17.32-2.12-3.5-4.29-6.98-6.24-10.58-2.93-5.43-5.53-11.03-7.43-16.94-1.48-4.63-3.01-9.25-4.29-13.94-.87-3.16-1.48-6.41-1.97-9.66-.69-4.57-1.15-9.18-1.75-13.77-.93-7.17-.65-14.38-.3-21.56,.23-4.57,.82-9.17,1.71-13.66,1.18-5.95,2.67-11.85,4.31-17.69,1.05-3.75,2.55-7.37,3.9-11.03,2.55-6.91,5.85-13.45,9.45-19.81,3.63-6.41,7.74-12.49,12.17-18.36,6.54-8.66,13.86-16.52,21.85-23.74,6.58-5.95,13.57-11.33,20.96-16.16,6.69-4.38,13.57-8.42,20.81-11.75,4.41-2.03,8.88-3.91,13.41-5.64,4.76-1.82,9.55-3.58,14.43-5.02,4.49-1.33,9.08-2.3,13.66-3.25,4.78-.99,9.59-1.88,14.42-2.59,3.44-.51,6.93-.75,10.4-.93,5.81-.3,11.64-.54,17.46-.66,3.24-.07,6.49,0,9.72,.28,4.38,.38,8.76,.95,13.12,1.57,3.64,.52,7.28,1.09,10.86,1.9,4.17,.95,8.31,2.07,12.39,3.33,4.24,1.32,8.47,2.73,12.58,4.41,4.23,1.72,8.36,3.73,12.46,5.77,5.98,2.97,11.59,6.6,17,10.56,5.96,4.36,11.41,9.29,16.4,14.79,4.38,4.83,8.14,10.14,11.12,16.01,1.97,3.89,3.37,7.99,4.06,12.37,.49,3.15,.43,6.22-.1,9.33-.74,4.35-4.43,8.11-8.61,8.98-6.81,1.42-12.45-1-17.59-5.35-.95-.81-1.96-1.53-3.12-2.43-.29,1.29-.46,2.33-.76,3.34-1.37,4.58-4.99,7.19-9.55,7.49-6.05,.4-11.19-2.04-16.25-4.95-3.44-1.99-6.9-3.95-10.38-5.86-.62-.34-1.4-.44-2.11-.53-1.11-.15-1.95,.32-2.48,1.37-.9,1.81-1.72,3.68-2.75,5.4-1.06,1.76-2.72,2.54-4.75,2.81-4.15,.55-7.55-1.35-10.91-3.33-6.47-3.81-12.27-8.62-18.15-13.31-1.74-1.39-3.5-2.76-5.26-4.13l-.28,.18c.18,1.18,.34,2.37,.54,3.55,1.28,7.81-2.92,14.47-11.31,15.2-5.05,.44-9.85-.8-14.43-2.75-6.12-2.6-12.12-5.47-18.14-8.3-6.16-2.89-12.21-6.02-18.43-8.78-5.69-2.52-11.64-4.27-17.82-5.01-.36-.04-.73-.05-1.09-.05-.4,0-.8,0-1.32,0,.29,.9,.54,1.71,.8,2.51,.6,1.82-.1,3.39-1.03,4.81-.32,.48-1.12,.87-1.71,.88-4.09,.07-8.21,.31-12.27-.01-13.46-1.07-26.94-.14-40.4-.48-.6-.02-1.2-.12-1.8-.18h.01ZM236.75,24.41l-.18,.37c.3,.22,.58,.49,.91,.66,1.08,.56,2.16,1.11,3.26,1.62,5.23,2.45,10.2,5.34,14.85,8.83,8.71,6.53,15.95,14.34,19.91,24.93,.37,1,.61,2.06,.97,3.33-.55-.22-.82-.3-1.06-.42-4.85-2.38-9.75-4.6-15.18-5.14-3.64-.36-6.85,.37-8.99,3.82-.15,.23-.35,.43-.6,.74-.8-.94-1.51-1.83-2.28-2.67-6.65-7.23-14.18-13.26-22.78-17.84-7.23-3.85-14.75-6.9-22.68-8.8-3.96-.95-7.92-1.86-11.92-2.59-2.97-.55-6-.8-9.01-1.15-.6-.07-1.21,.04-1.82,.07v.34c2.43,.49,4.89,.88,7.29,1.5,4.41,1.14,8.87,2.16,13.15,3.69,5.24,1.88,10.43,4,15.46,6.43,8.79,4.24,16.57,10.02,23.1,17.49,1.17,1.33,2.19,2.8,3.28,4.21-3.61-1.67-7.02-3.37-10.85-4.3-3.56-.86-6.88-.6-10.18,.56-3.63,1.28-6.61,3.67-9.02,6.74-.62,.79-1.02,.69-1.78,.16-3.5-2.46-6.96-5.01-10.62-7.19-5.91-3.53-12.23-6.13-18.67-8.48-6.63-2.42-13.41-4.21-20.29-5.55-4.47-.87-9.01-1.47-13.54-1.86-5.12-.45-10.26-.54-15.39-.76-.44-.02-.88,.07-1.32,.11,.24,.33,.47,.43,.7,.46,4.93,.6,9.86,1.15,14.78,1.81,2.8,.37,5.62,.72,8.36,1.4,5.21,1.29,10.42,2.61,15.52,4.28,4.63,1.52,9.2,3.33,13.63,5.39,3.8,1.78,7.47,3.94,11.02,6.22,3.83,2.46,7.44,5.29,11.18,7.9,2.56,1.79,5.12,3.62,7.82,5.17,1.97,1.13,4.21,.17,4.89-1.71,1.4-3.9,3.71-5.57,7.72-5.82,4.69-.3,9.05,.87,13.24,2.91,3.67,1.78,7.29,3.7,11.01,5.36,2.29,1.02,5.38,.54,6.33-2.45,.33-1.03,.77-2.02,1.1-3.04,.62-1.92,1.6-3.64,3.59-4.03,1.64-.32,3.43-.35,5.07-.05,3.49,.63,6.68,2.12,9.58,4.29,1.73,1.29,3.54,2.52,5.45,3.47,2.43,1.21,5.79,.18,5.17-3.67-.27-1.68-.64-3.36-1.17-4.97-1.52-4.67-4.03-8.79-6.89-12.69-4.98-6.81-11.13-12.3-17.97-17.01-5.28-3.63-10.91-6.61-16.76-9.12-2.44-1.05-4.93-1.96-7.4-2.93ZM108.66,52.11l-.02,.45c.32,.08,.64,.17,.97,.24,2.4,.5,4.82,.95,7.21,1.51,5.41,1.27,10.52,3.46,15.57,5.72,5.03,2.25,9.9,4.88,14.91,7.18,4.6,2.11,9.26,4.08,13.97,5.92,1.5,.59,3.24,.84,4.85,.76,2.8-.14,4.72-1.7,4.43-4.98-.19-2.22-1.6-3.69-3.12-5.01-.69-.6-1.5-1.51-2.54-.86-1.13,.7-.46,1.88-.44,2.87,0,.08,.06,.15,.09,.23,.54,1.48-.11,2.65-1.63,2.66-1.28,.01-2.63-.03-3.82-.44-3.06-1.04-6.07-2.24-9.07-3.47-5.57-2.29-11.06-4.82-16.69-6.94-4.67-1.76-9.47-3.21-14.28-4.53-2.74-.75-5.62-1-8.44-1.42-.62-.09-1.28,.06-1.92,.1Z"/><path class="g" d="M51.02,74.71c1.48-1.53,3.01-3.03,4.45-4.61,6.82-7.44,14.41-14.01,22.63-19.85,7.26-5.15,14.85-9.77,22.97-13.41,5.36-2.4,10.88-4.48,16.4-6.48,3.5-1.27,7.12-2.27,10.74-3.19,3.08-.78,6.22-1.34,9.35-1.89,3.36-.59,6.74-1.06,10.1-1.58,.16-.02,.32-.03,.48-.04,6.23-.12,12.47-.28,18.7-.33,2.47-.02,4.95,.16,7.42,.3,.57,.03,1.13,.23,1.7,.35l.08-.33c-.58-.19-1.15-.49-1.75-.56-9.74-1.01-19.51-1.71-29.3-1.15-4.85,.27-9.69,.96-14.52,1.55-2.85,.35-5.7,.74-8.5,1.37-3.69,.82-7.37,1.71-10.96,2.88-4.45,1.45-8.87,3.06-13.19,4.85-9.17,3.8-17.7,8.77-25.71,14.65-8,5.87-15.22,12.55-21.75,20-7.14,8.15-13.24,17.03-18.46,26.52-3.49,6.34-6.43,12.94-8.92,19.71-2,5.45-3.57,11.04-4.8,16.74-1.92,8.85-2.19,17.73-1.13,26.68,.16,1.38,.5,2.74,.74,4.11,.05,.31,.18,.68,.07,.94-.87,2.02-1.24,4.24-2.71,6.01-.56,.67-.77,1.65-1.1,2.5-.51,1.3-.99,2.61-1.5,3.91-.38,.97-.02,1.33,.96,1.33,2.16-.02,4.32,.04,6.48-.02,.98-.03,1.45,.39,1.78,1.24,3.93,10.12,9.63,19.15,16.76,27.33,6.6,7.57,14.11,14.08,22.49,19.55,4.09,2.67,8.43,4.98,12.66,7.44,.31,.18,.68,.26,1.03,.39l.2-.32c-.5-.41-.96-.89-1.5-1.23-6.75-4.23-12.87-9.27-18.56-14.82-5.93-5.78-11.22-12.11-15.64-19.1-2.51-3.98-4.63-8.21-6.8-12.4-1.15-2.22-2.04-4.57-3.04-6.87-.26-.6-.31-1.11,.56-1.17,2.68-.18,5.37-.53,8.05-.5,4.37,.04,8.73,.3,13.09,.53,.41,.02,.91,.43,1.19,.79,2.44,3.15,4.72,6.42,7.27,9.47,3.31,3.96,7.24,7.31,11.49,10.23,3.5,2.41,7.13,4.62,10.72,6.9,.34,.22,.76,.32,1.21,.37-10.26-7.6-18.86-16.58-24.62-28.04l.2-.48c2.11,.2,4.22,.4,6.34,.59,.36,.03,.71,.1,1.07,.1,4,0,8-.01,12,.02,.89,0,1.49-.3,2.03-.99,4.21-5.47,8.47-10.9,12.64-16.4,1.01-1.33,2.08-1.93,3.8-1.87,3.75,.15,7.52,.04,11.28,.05,1.34,0,1.44,.12,.96,1.34-1.73,4.46-3.49,8.9-5.23,13.36-2.39,6.13-4.75,12.27-7.15,18.4-2.37,6.05-4.81,12.08-7.18,18.13-2.89,7.39-5.73,14.8-8.62,22.19-2.16,5.53-4.4,11.04-6.56,16.57-1.61,4.12-3.17,8.26-4.76,12.39-.18,.47-.43,.92-.73,1.58-20.82-15.5-37.46-34.46-50.22-56.88l-.31,.19c.22,.65,.42,1.31,.67,1.95,3.23,8.09,7.2,15.79,12.02,23.07,4.64,7,9.85,13.51,15.72,19.5,6.07,6.19,12.63,11.81,19.82,16.68,.35,.24,.7,.94,.6,1.3-.34,1.22-.9,2.38-1.36,3.57-.31,.79-.82,.94-1.48,.45-3.38-2.48-6.78-4.91-10.1-7.47-5.32-4.09-10.1-8.78-14.64-13.72-4.75-5.17-9.21-10.58-12.96-16.54-2.1-3.34-4.24-6.66-6.16-10.1-2.89-5.18-5.46-10.53-7.33-16.17-1.47-4.42-2.97-8.83-4.24-13.31-.86-3.02-1.46-6.12-1.95-9.22-.68-4.37-1.14-8.77-1.72-13.15-.91-6.85-.64-13.73-.29-20.58,.22-4.37,.81-8.75,1.68-13.04,1.17-5.68,2.64-11.31,4.25-16.89,1.03-3.58,2.52-7.04,3.85-10.53,2.52-6.6,5.77-12.84,9.33-18.92,3.58-6.12,7.64-11.92,12.01-17.53,6.45-8.27,13.69-15.77,21.57-22.66,6.5-5.68,13.4-10.82,20.69-15.43,6.6-4.18,13.4-8.04,20.54-11.21,4.35-1.93,8.77-3.73,13.23-5.39,4.7-1.74,9.43-3.41,14.24-4.79,4.43-1.27,8.96-2.2,13.48-3.1,4.72-.94,9.47-1.79,14.24-2.47,3.4-.48,6.84-.71,10.27-.88,5.74-.29,11.48-.51,17.23-.63,3.2-.06,6.41,0,9.59,.26,4.33,.36,8.64,.91,12.95,1.5,3.59,.5,7.18,1.04,10.72,1.82,4.11,.91,8.2,1.97,12.23,3.18,4.19,1.26,8.36,2.61,12.42,4.21,4.18,1.65,8.25,3.56,12.3,5.51,5.9,2.83,11.43,6.3,16.78,10.08,5.88,4.16,11.26,8.87,16.18,14.12,4.33,4.61,8.04,9.68,10.97,15.29,1.95,3.72,3.33,7.62,4.01,11.81,.49,3.01,.42,5.93-.1,8.91-.73,4.16-4.37,7.74-8.49,8.57-6.73,1.36-12.29-.96-17.36-5.11-.94-.77-1.94-1.46-3.08-2.32-.29,1.23-.46,2.23-.75,3.19-1.35,4.37-4.92,6.86-9.43,7.15-5.97,.38-11.05-1.94-16.04-4.73-3.4-1.9-6.81-3.77-10.25-5.6-.61-.33-1.38-.42-2.09-.51-1.09-.14-1.93,.3-2.45,1.31-.89,1.73-1.69,3.51-2.72,5.16-1.05,1.68-2.68,2.43-4.69,2.69-4.1,.53-7.46-1.29-10.77-3.18-6.39-3.64-12.11-8.23-17.91-12.71-1.72-1.33-3.46-2.63-5.19-3.94l-.28,.17c.18,1.13,.34,2.26,.53,3.39,1.27,7.45-2.88,13.82-11.17,14.51-4.98,.42-9.72-.77-14.24-2.62-6.04-2.48-11.97-5.22-17.91-7.93-6.08-2.76-12.05-5.75-18.19-8.38-5.62-2.41-11.49-4.08-17.59-4.78-.36-.04-.72-.04-1.08-.05-.4,0-.79,0-1.31,0,.29,.86,.53,1.63,.79,2.4,.59,1.74-.1,3.24-1.02,4.6-.31,.46-1.11,.83-1.69,.84-4.04,.07-8.1,.3-12.12-.01-13.29-1.02-26.59-.13-39.87-.46-.59-.01-1.19-.12-1.78-.18h.01ZM237.57,29.83l-.18,.35c.3,.21,.57,.46,.89,.63,1.06,.54,2.14,1.06,3.22,1.55,5.16,2.33,10.07,5.1,14.66,8.43,8.6,6.24,15.75,13.69,19.65,23.8,.37,.96,.6,1.97,.96,3.18-.55-.21-.81-.28-1.05-.4-4.79-2.27-9.62-4.39-14.98-4.9-3.59-.34-6.76,.36-8.87,3.64-.14,.22-.34,.41-.59,.7-.79-.9-1.49-1.75-2.25-2.55-6.56-6.91-14-12.66-22.48-17.03-7.14-3.67-14.56-6.59-22.39-8.4-3.9-.9-7.82-1.77-11.76-2.47-2.94-.52-5.92-.77-8.89-1.1-.59-.07-1.2,.04-1.8,.07v.32c2.39,.47,4.82,.84,7.2,1.43,4.35,1.09,8.75,2.06,12.98,3.53,5.18,1.79,10.3,3.82,15.26,6.14,8.67,4.05,16.36,9.56,22.8,16.7,1.15,1.27,2.16,2.68,3.24,4.02-3.56-1.59-6.93-3.22-10.71-4.1-3.51-.82-6.79-.57-10.05,.54-3.58,1.22-6.52,3.5-8.91,6.43-.61,.75-1.01,.66-1.75,.15-3.45-2.35-6.87-4.78-10.48-6.87-5.83-3.37-12.07-5.85-18.43-8.09-6.55-2.31-13.24-4.02-20.03-5.3-4.41-.83-8.89-1.4-13.36-1.78-5.05-.43-10.13-.51-15.19-.73-.43-.02-.87,.07-1.3,.11,.24,.32,.46,.41,.69,.44,4.86,.57,9.73,1.1,14.59,1.72,2.77,.35,5.55,.69,8.26,1.34,5.14,1.23,10.29,2.49,15.32,4.09,4.57,1.45,9.08,3.18,13.45,5.15,3.76,1.7,7.37,3.76,10.87,5.94,3.78,2.35,7.34,5.05,11.03,7.54,2.53,1.71,5.05,3.46,7.71,4.94,1.94,1.08,4.16,.16,4.83-1.63,1.39-3.73,3.66-5.32,7.62-5.56,4.63-.28,8.93,.83,13.06,2.77,3.62,1.7,7.19,3.53,10.87,5.12,2.26,.97,5.31,.52,6.25-2.34,.32-.98,.76-1.92,1.09-2.91,.61-1.83,1.58-3.47,3.55-3.85,1.62-.31,3.38-.33,5.01-.05,3.45,.6,6.59,2.03,9.46,4.1,1.71,1.23,3.49,2.41,5.38,3.32,2.4,1.15,5.72,.17,5.11-3.51-.27-1.6-.63-3.21-1.15-4.75-1.5-4.46-3.98-8.39-6.8-12.12-4.91-6.5-10.98-11.74-17.73-16.24-5.21-3.47-10.77-6.31-16.55-8.7-2.41-1-4.87-1.87-7.3-2.8Zm-126.43,26.45l-.02,.43c.32,.08,.64,.16,.96,.23,2.37,.48,4.75,.91,7.11,1.44,5.34,1.21,10.38,3.3,15.37,5.46,4.96,2.15,9.77,4.66,14.72,6.85,4.54,2.01,9.14,3.89,13.78,5.65,1.48,.56,3.2,.8,4.78,.73,2.77-.13,4.65-1.63,4.37-4.76-.19-2.12-1.58-3.52-3.08-4.78-.68-.57-1.48-1.44-2.51-.82-1.12,.67-.45,1.8-.44,2.74,0,.07,.06,.15,.09,.22,.53,1.41-.11,2.53-1.61,2.54-1.26,.01-2.59-.03-3.77-.42-3.02-.99-6-2.14-8.95-3.32-5.5-2.19-10.92-4.6-16.48-6.62-4.61-1.68-9.35-3.06-14.1-4.32-2.71-.72-5.54-.96-8.33-1.36-.62-.09-1.27,.06-1.9,.1Z"/><path d="M190.04,91.87c1.09-2.09,2.16-4.11,3.21-6.14,.34-.66,.73-.42,1.16-.11,1.53,1.14,3.06,2.28,4.6,3.42,1.17,.87,2.36,1.72,3.46,2.83h-12.42Z"/><path class="e" d="M237.57,29.83c2.44,.93,4.9,1.8,7.3,2.8,5.78,2.39,11.33,5.23,16.55,8.7,6.75,4.49,12.82,9.74,17.73,16.24,2.82,3.73,5.29,7.66,6.8,12.12,.52,1.54,.88,3.15,1.15,4.75,.61,3.68-2.71,4.66-5.11,3.51-1.89-.91-3.68-2.09-5.38-3.32-2.87-2.07-6.01-3.5-9.46-4.1-1.62-.28-3.39-.26-5.01,.05-1.97,.38-2.94,2.02-3.55,3.85-.33,.98-.77,1.92-1.09,2.91-.94,2.86-3.99,3.32-6.25,2.34-3.68-1.58-7.24-3.41-10.87-5.12-4.13-1.94-8.44-3.06-13.06-2.77-3.96,.24-6.24,1.83-7.62,5.56-.67,1.8-2.89,2.71-4.83,1.63-2.66-1.48-5.18-3.23-7.71-4.94-3.69-2.49-7.25-5.19-11.03-7.54-3.5-2.18-7.12-4.24-10.87-5.94-4.37-1.97-8.88-3.7-13.45-5.15-5.03-1.6-10.18-2.86-15.32-4.09-2.7-.65-5.49-.98-8.26-1.34-4.86-.62-9.72-1.15-14.59-1.72-.23-.03-.44-.12-.69-.44,.43-.04,.87-.13,1.3-.11,5.07,.22,10.14,.3,15.19,.73,4.47,.38,8.95,.94,13.36,1.78,6.79,1.29,13.48,3,20.03,5.3,6.36,2.24,12.6,4.73,18.43,8.09,3.61,2.08,7.03,4.52,10.48,6.87,.75,.51,1.14,.61,1.75-.15,2.39-2.94,5.32-5.22,8.91-6.43,3.26-1.11,6.54-1.36,10.05-.54,3.78,.88,7.15,2.51,10.71,4.1-1.07-1.34-2.09-2.74-3.24-4.02-6.45-7.14-14.13-12.65-22.8-16.7-4.96-2.32-10.08-4.35-15.26-6.14-4.23-1.46-8.63-2.44-12.98-3.53-2.37-.59-4.8-.96-7.21-1.43v-.32c.61-.03,1.22-.13,1.81-.07,2.97,.33,5.95,.58,8.89,1.1,3.94,.7,7.86,1.57,11.76,2.47,7.83,1.81,15.25,4.73,22.39,8.4,8.49,4.37,15.92,10.13,22.48,17.03,.76,.8,1.46,1.65,2.25,2.55,.25-.29,.45-.48,.59-.7,2.11-3.29,5.28-3.99,8.87-3.64,5.36,.51,10.2,2.63,14.98,4.9,.24,.11,.5,.19,1.05,.4-.36-1.21-.59-2.22-.96-3.18-3.9-10.11-11.05-17.56-19.65-23.8-4.59-3.33-9.5-6.09-14.66-8.43-1.08-.49-2.16-1.01-3.22-1.55-.32-.16-.6-.42-.89-.63l.18-.35Z"/><path class="e" d="M111.13,56.28c.63-.04,1.28-.18,1.9-.1,2.79,.4,5.62,.64,8.33,1.36,4.75,1.26,9.48,2.65,14.1,4.32,5.56,2.02,10.98,4.44,16.48,6.62,2.96,1.18,5.93,2.32,8.95,3.32,1.18,.39,2.51,.43,3.77,.42,1.5-.01,2.14-1.13,1.61-2.54-.03-.07-.09-.15-.09-.22-.02-.95-.68-2.07,.44-2.74,1.03-.62,1.83,.25,2.51,.82,1.5,1.26,2.89,2.66,3.08,4.78,.28,3.13-1.61,4.63-4.37,4.76-1.59,.08-3.3-.17-4.78-.73-4.64-1.76-9.25-3.64-13.78-5.65-4.95-2.19-9.76-4.7-14.72-6.85-4.99-2.16-10.03-4.26-15.37-5.46-2.36-.53-4.74-.96-7.11-1.44-.32-.06-.64-.15-.96-.23l.02-.43Z"/></g></svg>