<?xml version="1.0" encoding="UTF-8"?><svg id="a" xmlns="http://www.w3.org/2000/svg" viewBox="0 0 339.89 339.94"><defs><style>.b{fill:#fff;}.c{fill:#862633;}.d{fill:#b2b4b6;}</style></defs><g><path class="c" d="M169.9,.25c93.46,.07,170.58,75.84,169.73,171.54-.81,91.81-75.59,168.75-171.53,167.9C76.26,338.87-.72,264.13,.25,167.96,1.19,75.92,75.77,.57,169.9,.25Zm98.39,67.59c.2-.7,.15-1.47,.23-2.28-.55-.02-.94-.06-1.33-.06-20-.1-40-.27-60-.27-36.76-.01-73.51,.09-110.27,.16-8.24,.01-16.48,.08-24.72,.1-.97,0-1.37,.15-1.1,1.28,1.32,5.61,3.05,11.07,6,16.04,2.14,3.62,4.33,7.26,6.99,10.49,3.41,4.12,7.23,7.91,11.02,11.7,2.38,2.37,5.02,4.48,7.77,6.9,.07-.81,.16-1.35,.16-1.89,0-4.72,.05-9.44-.01-14.16-.02-1.27,.47-1.92,1.65-2.2,.73-.17,1.44-.43,2.16-.64,4.24-1.21,8.48-2.48,12.74-3.63,2.73-.73,5.5-1.32,8.26-1.89,2.31-.48,4.63-.9,6.96-1.24,4.81-.71,9.62-1.43,14.45-2,2.41-.29,2.02-.1,2.02,1.88,0,56.96-.02,113.92,0,170.87,0,1.63,.22,3.25,.44,4.87,.6,4.42,2.47,8.43,4.86,12.07,3.25,4.97,6.96,9.64,10.51,14.4,.78,1.06,1.73,2,2.63,3.02,1.96-2.38,3.85-4.58,5.64-6.87,3.17-4.06,6.3-8.14,8.8-12.68,2.64-4.79,4.11-9.79,4.1-15.28-.04-30.48-.02-60.96-.02-91.44V85.89c0-1.74,.02-1.81,1.74-1.65,2.7,.26,5.39,.58,8.08,.95,2.96,.4,5.94,.76,8.87,1.37,5.34,1.11,10.67,2.3,15.96,3.65,4.12,1.05,8.16,2.39,12.24,3.56,1.05,.3,1.43,.84,1.42,1.97-.06,4.84-.03,9.68-.02,14.52,0,.45,.08,.9,.14,1.58,2.22-1.91,4.32-3.55,6.23-5.38,3.19-3.04,6.34-6.13,9.35-9.34,4.31-4.6,7.91-9.73,10.81-15.35,2.3-4.44,3.88-9.14,5.24-13.93Z"/><path class="d" d="M268.52,65.56c-.08,.81-.03,1.58-.23,2.28-1.36,4.79-2.94,9.49-5.24,13.93-2.9,5.62-6.5,10.75-10.81,15.35-3.01,3.21-6.16,6.3-9.35,9.34-1.91,1.83-4.01,3.47-6.23,5.38-.06-.68-.14-1.13-.14-1.58,0-4.84-.04-9.68,.02-14.52,.01-1.13-.37-1.67-1.42-1.97-4.08-1.17-8.12-2.51-12.24-3.56-5.29-1.35-10.62-2.54-15.96-3.65-2.93-.61-5.91-.97-8.87-1.37-2.69-.37-5.38-.69-8.08-.95-1.72-.16-1.74-.09-1.74,1.65v79.2c0,30.48-.02,60.96,.02,91.44,.01,5.49-1.46,10.49-4.1,15.28-2.5,4.54-5.63,8.62-8.8,12.68-1.79,2.29-3.68,4.49-5.64,6.87-.9-1.02-1.85-1.96-2.63-3.02-3.55-4.76-7.26-9.43-10.51-14.4-2.39-3.64-4.26-7.65-4.86-12.07-.22-1.62-.44-3.24-.44-4.87-.02-56.95,0-113.91,0-170.87,0-1.98,.39-2.17-2.02-1.88-4.83,.57-9.64,1.29-14.45,2-2.33,.34-4.65,.76-6.96,1.24-2.76,.57-5.53,1.16-8.26,1.89-4.26,1.15-8.5,2.42-12.74,3.63-.72,.21-1.43,.47-2.16,.64-1.18,.28-1.67,.93-1.65,2.2,.06,4.72,.02,9.44,.01,14.16,0,.54-.09,1.08-.16,1.89-2.75-2.42-5.39-4.53-7.77-6.9-3.79-3.79-7.61-7.58-11.02-11.7-2.66-3.23-4.85-6.87-6.99-10.49-2.95-4.97-4.68-10.43-6-16.04-.27-1.13,.13-1.28,1.1-1.28,8.24-.02,16.48-.09,24.72-.1,36.76-.07,73.51-.17,110.27-.16,20,0,40,.17,60,.27,.39,0,.78,.04,1.33,.06Z"/></g><path class="b" d="M151.27,86.13l19.7-2.91-1.26,208.14s-17.26-19.84-18-29.49l-.44-175.73Z"/><path class="b" d="M72.2,65.48s21.64,27.53,31.77,28.73c4-2,14-28,67-11,0,0,23-9,70,4,0,0,24.09-15.32,27.55-21.66l-196.32-.07Z"/><path class="b" d="M236.54,95.74s5.43-4.52,4.43-8.52c0,0,5.38,19.24-4.31,24.62,0,0,.31-13.62-.12-16.1Z"/></svg>