<?xml version="1.0" encoding="UTF-8"?><svg id="a" xmlns="http://www.w3.org/2000/svg" viewBox="0 0 288.47 288.48"><defs><style>.b{fill:#ff8200;}</style></defs><path class="b" d="M288.22,2.31V95.03q0,2.06-2.09,2.06h-31.15c-2.17,0-2.22,.01-2.48-2.16-1.21-10.19-6.65-17.65-15.02-23.14-6.51-4.26-13.72-6.42-21.5-6.92-11.2-.72-21.38,1.98-30.44,8.66-3.35,2.47-6.15,5.49-8.3,9.07-.46,.76-.76,1.75-.76,2.64-.04,40.01-.25,80.02,.06,120.03,.15,19.6,9.17,34.31,26.92,43.22,5.22,2.62,10.89,3.75,16.7,4.02,1.21,.06,1.5,.46,1.49,1.59-.03,10.86-.03,21.72,0,32.57,.01,1.14-.27,1.56-1.49,1.56-50.63-.03-101.26-.03-151.89,0-1.14,0-1.44-.37-1.44-1.47,.04-10.91,.04-21.81,0-32.71,0-1.06,.22-1.48,1.4-1.53,22.12-.97,38.2-17.13,42.35-35.8,.9-4.03,1.38-8.23,1.39-12.36,.1-39.58,.07-79.16,.02-118.74,0-1.15-.39-2.46-1.02-3.42-5.35-8.21-13.07-13.24-22.39-15.7-14.71-3.88-28.47-1.78-40.71,7.59-6.06,4.64-10.06,10.75-11.51,18.36-.22,1.16-.38,2.34-.43,3.52-.03,.87-.37,1.13-1.2,1.13-11.1-.02-22.19-.02-33.28,0-.95,.01-1.22-.36-1.21-1.26,.04-3.32,.02-6.64,.02-9.96V2.26C.27,.26,.27,.25,2.26,.25H286.12c2.1,0,2.1,0,2.1,2.06Z"/></svg>