<?xml version="1.0" encoding="UTF-8"?><svg id="a" xmlns="http://www.w3.org/2000/svg" viewBox="0 0 226.58 216.84"><defs><style>.c{fill:#fff;}</style></defs><g id="b"><path class="c" d="M191.24,103.35c9.62,.07,19.7-2.23,23.37,9.39,2.86,9.07-1.22,17.71-9.39,22.51-1.62-2.33-2.8-5.96-4.85-6.54-3.27-.93-7.14,0-10.69,.53-.74,.11-1.72,1.94-1.75,3-.44,17.1-1.03,34.2-.92,51.3,.04,6.54,4.86,10.24,11.55,10.8,7.56,.63,14.44-1.66,21.17-4.71,1.92-.87,3.86-1.69,6.37-2.78,1.42,5.44-.47,9.6-2.96,13.45-5.76,8.88-14.88,12.62-24.62,14.72-20.13,4.34-33.51-4.8-36.25-25.69-1.44-10.96-.86-22.22-.69-33.34,.12-7.77,1.07-15.52,1.7-23.88-12.48,1.99-24.26,3.72-35.96,5.88-1.64,.3-3.39,2.43-4.26,4.13-9.29,18.11-19.17,35.82-33.09,50.9-9.87,10.69-20.98,19.79-35.7,22.48-17.35,3.18-33.65,1.39-45.92-13.37-10.93-13.15-11.13-31.29-.57-42.41,.69-.72,1.33-1.73,2.18-2.01,2.04-.67,4.19-.98,6.3-1.43-.2,1.98-.41,3.96-.61,5.94-.38,3.71-1.73,7.64-.96,11.1,4.24,19.09,22.8,28.1,41.08,20.32,9.71-4.13,16.9-11.34,22.52-19.91,7.37-11.25,14.02-22.96,21.34-35.06-11.94-2.66-16.55-10.51-16.37-21.16,.13-8.18,4.07-14.55,11.34-17.9,.98,4.19,1.25,8.6,3.05,12.26,3.49,7.12,10.02,6.92,14.35,.54,16.43-24.23,33.07-48.31,49.65-72.44,.84-1.22,1.73-2.4,3.24-4.48-7.41-.45-14.12-.52-20.74-1.36-7.37-.94-14.91-1.82-21.92-4.1-8.98-2.92-13.36-10.98-12.15-20,.6-4.43,2.33-8.26,7.57-9.91,.49,11.65,8.83,14.96,17.88,17.04,12.15,2.79,24.47,2.54,36.76,.85,11.92-1.64,20.95-8.99,30.03-15.97,2.95-2.27,5.11-2.77,8.33-.85,3.54,2.11,7.43,3.66,11.43,5.58-16.41,30.24-23.65,63.13-30.8,96.59Zm-53.88,9.66c8.51-1,15.89-2.13,23.32-2.64,4.31-.29,6.24-1.85,7.28-6.17,4.44-18.38,9.29-36.65,13.97-54.97,.21-.81,.15-1.7,.26-3.26-19.9,19.29-30.88,43.49-44.83,67.04Z"/></g></svg>